<svg xmlns="http://www.w3.org/2000/svg" xmlns:xlink="http://www.w3.org/1999/xlink" version="1.2" viewBox="19.66 539.63 770.38 290.24">
<defs>
<clipPath id="clip1">
  <path d="M 19.660156 539.632812 L 790.03125 539.632812 L 790.03125 829.871094 L 19.660156 829.871094 Z M 19.660156 539.632812 "/>
</clipPath>
</defs>
<g id="surface1">
<g clip-path="url(#clip1)" clip-rule="nonzero">
<path style=" stroke:none;fill-rule:nonzero;fill:rgb(27.839661%,27.839661%,27.839661%);fill-opacity:1;" d="M 19.660156 821.261719 L 207.515625 687.765625 L 238.535156 697.242188 L 316.089844 606.808594 L 344.527344 625.757812 L 429.835938 539.628906 L 578.054688 673.988281 L 604.765625 649.871094 L 665.949219 744.609375 L 704.722656 729.105469 L 790.035156 829.871094 L 696.109375 753.222656 L 661.640625 769.585938 L 595.289062 684.753906 L 572.882812 700.6875 L 431.558594 570.636719 L 352.28125 647.289062 L 322.125 633.363281 L 246.292969 720.496094 L 210.101562 710.160156 L 19.660156 821.261719 "/>
</g>
<path style=" stroke:none;fill-rule:nonzero;fill:rgb(27.839661%,27.839661%,27.839661%);fill-opacity:1;" d="M 117.894531 785.519531 L 210.53125 718.339844 L 260.078125 745.042969 L 210.53125 735.136719 L 196.742188 765.28125 L 188.988281 747.625 L 117.894531 785.519531 "/>
<path style=" stroke:none;fill-rule:nonzero;fill:rgb(27.839661%,27.839661%,27.839661%);fill-opacity:1;" d="M 271.710938 700.253906 L 320.832031 644.703125 L 345.390625 657.191406 L 321.691406 660.636719 L 271.710938 700.253906 "/>
<path style=" stroke:none;fill-rule:nonzero;fill:rgb(27.839661%,27.839661%,27.839661%);fill-opacity:1;" d="M 279.035156 732.550781 L 428.113281 584.417969 L 557.371094 695.519531 L 456.117188 630.925781 L 447.070312 665.804688 L 418.203125 635.230469 L 418.203125 688.199219 L 383.738281 663.652344 L 369.519531 727.382812 L 357.453125 684.753906 L 279.035156 732.550781 "/>
<path style=" stroke:none;fill-rule:nonzero;fill:rgb(27.839661%,27.839661%,27.839661%);fill-opacity:1;" d="M 553.492188 720.0625 L 553.492188 778.628906 L 587.101562 726.523438 L 606.484375 749.347656 L 606.484375 729.539062 L 624.152344 734.273438 L 593.988281 694.65625 L 553.492188 720.0625 "/>
<path style=" stroke:none;fill-rule:nonzero;fill:rgb(27.839661%,27.839661%,27.839661%);fill-opacity:1;" d="M 665.082031 773.894531 L 695.675781 763.125 L 729.28125 795.421875 L 693.089844 778.628906 L 665.082031 773.894531 "/>
</g>
</svg>