<svg xmlns="http://www.w3.org/2000/svg" xmlns:xlink="http://www.w3.org/1999/xlink" version="1.2" viewBox="37.48 272.18 728.17 681.51">
<defs>
<clipPath id="clip1">
  <path d="M 37.652344 297 L 765.644531 297 L 765.644531 665.867188 L 37.652344 665.867188 Z M 37.652344 297 "/>
</clipPath>
<clipPath id="clip2">
  <path d="M 37.476562 614 L 754 614 L 754 760 L 37.476562 760 Z M 37.476562 614 "/>
</clipPath>
<clipPath id="clip3">
  <path d="M 134 272.175781 L 501 272.175781 L 501 873 L 134 873 Z M 134 272.175781 "/>
</clipPath>
<clipPath id="clip4">
  <path d="M 90 785.742188 L 590.640625 785.742188 L 590.640625 935.542969 L 90 935.542969 Z M 90 785.742188 "/>
</clipPath>
<clipPath id="clip5">
  <path d="M 37.652344 315 L 765.644531 315 L 765.644531 684 L 37.652344 684 Z M 37.652344 315 "/>
</clipPath>
<clipPath id="clip6">
  <path d="M 37.476562 632 L 754 632 L 754 778 L 37.476562 778 Z M 37.476562 632 "/>
</clipPath>
<clipPath id="clip7">
  <path d="M 134 290.296875 L 501 290.296875 L 501 890.570312 L 134 890.570312 Z M 134 290.296875 "/>
</clipPath>
<clipPath id="clip8">
  <path d="M 90 803.875 L 590.640625 803.875 L 590.640625 953.671875 L 90 953.671875 Z M 90 803.875 "/>
</clipPath>
</defs>
<g id="surface1">
<g clip-path="url(#clip1)" clip-rule="nonzero">
<path style=" stroke:none;fill-rule:evenodd;fill:rgb(98.429871%,100%,80.389404%);fill-opacity:1;" d="M 765.644531 654.726562 C 710.09375 542.828125 655.417969 458.070312 601.617188 400.476562 L 543.09375 436.296875 C 523.679688 402.605469 473.347656 356.304688 392.105469 297.363281 L 300.394531 382.144531 L 259.339844 348.921875 L 193.921875 419.683594 L 164.179688 405.046875 C 80.34375 499.800781 69.574219 562.628906 37.652344 665.316406 C 211.609375 580.050781 459.523438 572.988281 765.644531 654.726562 "/>
</g>
<path style=" stroke:none;fill-rule:evenodd;fill:rgb(98.429871%,100%,80.389404%);fill-opacity:1;" d="M 259.339844 358.519531 L 341.949219 423.238281 L 283.800781 395.199219 L 286.390625 407.488281 L 269.898438 387.324219 L 266.347656 398.753906 L 260.300781 385.59375 L 246.292969 395.199219 L 245.429688 383.003906 L 226.246094 399.613281 L 259.339844 358.519531 "/>
<path style=" stroke:none;fill-rule:evenodd;fill:rgb(98.429871%,100%,80.389404%);fill-opacity:1;" d="M 464.53125 369.085938 L 538.679688 445.890625 L 506.453125 422.277344 L 513.359375 439.746094 L 496.855469 423.238281 L 502.03125 439.746094 L 464.53125 369.085938 "/>
<path style=" stroke:none;fill-rule:evenodd;fill:rgb(98.429871%,100%,80.389404%);fill-opacity:1;" d="M 599.785156 410.949219 L 467.984375 493.140625 L 525.636719 480.84375 L 523.90625 469.515625 L 544.820312 475.660156 L 542.230469 459.910156 L 553.550781 459.910156 L 584.152344 429.28125 L 581.460938 453.765625 L 591.917969 436.296875 L 614.65625 459.050781 L 612.925781 438.886719 L 634.703125 459.910156 C 623.039062 436.714844 614.855469 417.445312 599.785156 410.949219 "/>
<path style=" stroke:none;fill-rule:evenodd;fill:rgb(98.429871%,100%,80.389404%);fill-opacity:1;" d="M 186.664062 423.238281 L 166.125 411.9375 L 142.410156 444.410156 L 162.332031 421.898438 L 162.332031 437.523438 L 168.59375 423.238281 L 171.675781 433.210938 L 176.089844 421.898438 L 186.664062 423.238281 "/>
<path style=" stroke:none;fill-rule:evenodd;fill:rgb(98.429871%,100%,80.389404%);fill-opacity:1;" d="M 306.832031 384.59375 L 313.769531 388.304688 L 332.300781 360.167969 L 306.832031 384.59375 "/>
<g clip-path="url(#clip2)" clip-rule="nonzero">
<path style=" stroke:none;fill-rule:evenodd;fill:rgb(98.429871%,100%,80.389404%);fill-opacity:1;" d="M 753.464844 678.492188 C 462.5 588.160156 223.890625 593.109375 37.652344 693.335938 L 118.660156 700.859375 L 81.296875 715.890625 L 142.410156 712.222656 L 101.199219 739.65625 L 152.359375 729.691406 L 121.285156 759.578125 C 307.757812 688.523438 491.488281 687.300781 672.453125 755.90625 L 590.046875 709.597656 L 672.453125 727.066406 L 630.027344 702.082031 L 704.746094 714.671875 L 648.710938 683.382812 L 753.464844 678.492188 "/>
</g>
<path style=" stroke:none;fill-rule:evenodd;fill:rgb(98.429871%,100%,80.389404%);fill-opacity:1;" d="M 713.808594 634.597656 L 707.285156 619.773438 L 712.160156 619.773438 L 702.09375 604.519531 L 706.84375 605.40625 L 691.605469 577.417969 L 676.355469 596.226562 L 682.867188 596.226562 L 673.699219 604.960938 L 678.445312 606.609375 L 671.484375 617.558594 L 658.449219 600.53125 L 662.757812 601.417969 L 647.066406 575.203125 L 635.238281 594.003906 L 638.339844 594.003906 L 628.28125 604.960938 L 637.453125 603.632812 L 621.761719 614.140625 L 609.492188 593.125 L 602.09375 581.28125 L 608.738281 583.496094 L 590.839844 562.914062 L 579.890625 579.199219 L 584.1875 583.496094 L 578.5625 589.128906 L 583.308594 591.351562 L 578.117188 600.976562 L 559.335938 572.542969 L 553.257812 593.566406 L 544.53125 581.722656 L 537.132812 597.113281 L 525.746094 580.394531 L 514.351562 600.082031 C 558.304688 603.53125 624.796875 615.042969 713.808594 634.597656 "/>
<g clip-path="url(#clip3)" clip-rule="nonzero">
<path style=" stroke:none;fill-rule:evenodd;fill:rgb(98.429871%,100%,80.389404%);fill-opacity:1;" d="M 414.347656 307.015625 C 408.289062 304.433594 401.273438 304.726562 393.332031 307.902344 L 366.699219 285.089844 C 363.113281 297.773438 367.503906 310.160156 379.875 322.265625 C 371.78125 330.148438 365.816406 334.117188 361.96875 347.585938 C 334.894531 351.589844 331.832031 362.558594 338.898438 372.019531 C 329.519531 382.535156 331.542969 389.992188 344.957031 394.390625 C 343.730469 402.003906 353.242188 407.429688 375.871094 400.007812 C 379.558594 407.464844 387.691406 409.242188 400.289062 405.347656 C 398.699219 452.730469 394.578125 480.515625 387.925781 488.714844 C 190.960938 439.570312 87.757812 517.730469 154.40625 703.871094 L 159.863281 757.9375 L 165.324219 744.824219 L 164.78125 773.769531 L 171.859375 766.128906 L 158.777344 824.011719 L 165.875 814.722656 L 151.679688 872.070312 L 210.605469 872.070312 C 225.660156 844.925781 223.21875 814.390625 234.613281 793.976562 L 236.253906 804.894531 C 244.988281 785.367188 250.988281 761.523438 254.25 733.363281 L 259.699219 739.371094 L 261.890625 733.90625 L 274.980469 742.640625 L 272.257812 729.542969 L 290.804688 743.191406 L 288.625 735 L 306.085938 748.109375 L 304.449219 736.085938 L 323.550781 749.746094 L 327.363281 741.011719 C 341.414062 744.027344 348.328125 764.960938 348.101562 803.804688 L 336.089844 868.785156 L 412.285156 868.785156 L 433.5 778.058594 L 437.1875 791.492188 L 450.964844 747.808594 L 457.675781 757.554688 C 515.78125 600.515625 518.480469 412.945312 445.914062 312.960938 L 416.078125 272.175781 C 406.191406 275.570312 405.621094 287.1875 414.347656 307.015625 "/>
</g>
<path style=" stroke:none;fill-rule:evenodd;fill:rgb(98.429871%,100%,80.389404%);fill-opacity:1;" d="M 206.785156 866.058594 C 216.84375 823.585938 219.207031 791.542969 213.875 769.949219 L 218.789062 781.964844 L 218.789062 748.109375 L 232.425781 773.769531 C 249.175781 739.003906 246.082031 696.597656 223.152344 646.535156 L 243.882812 675.480469 L 225.878906 621.414062 C 234.789062 640.796875 241.703125 652.453125 246.617188 656.363281 L 229.15625 611.039062 C 248.492188 652.101562 261.589844 677.40625 268.4375 686.941406 L 254.25 645.445312 L 289.167969 698.410156 L 277.164062 666.195312 L 318.625 733.90625 L 314.261719 716.433594 L 326.808594 733.363281 L 329.542969 711.519531 C 354.8125 742.667969 360.089844 794.183594 345.367188 866.058594 L 406.464844 863.875 C 414.558594 837.203125 420.140625 794.695312 433.835938 754.878906 C 479.484375 701.78125 540.324219 431.539062 416.832031 280.117188 C 410.78125 281.519531 411.875 292.078125 420.109375 311.789062 C 408.964844 309.164062 400.238281 309.164062 393.917969 311.789062 C 388.101562 309.742188 380.835938 304.441406 372.125 295.882812 C 372.5625 308.738281 377.566406 316.65625 387.132812 319.648438 C 375.402344 328.960938 367.988281 339.820312 365.230469 349.609375 C 341.992188 354.257812 334.550781 360.410156 342.566406 370.683594 C 350.023438 369.378906 355.398438 367.789062 358.675781 365.902344 C 363.726562 366.125 364.601562 373.625 359.90625 374.152344 L 342.691406 374.394531 C 334.925781 382.175781 334.601562 387.507812 345.015625 390.769531 C 342.886719 387.066406 342.886719 383.746094 345.015625 380.804688 C 346.003906 392.25 356.71875 394.296875 377.175781 386.933594 C 382.449219 402.371094 391.585938 405.589844 404.59375 396.589844 C 412.042969 420.664062 408.304688 455.738281 393.375 501.824219 C 204.753906 449 123.636719 506.523438 150.042969 674.386719 L 163.132812 675.480469 L 160.953125 702.785156 L 170.773438 686.398438 L 167.503906 727.902344 L 176.230469 721.351562 C 177.359375 777.425781 172.628906 824.027344 162.046875 861.144531 L 206.785156 866.058594 "/>
<path style=" stroke:none;fill-rule:evenodd;fill:rgb(98.429871%,100%,80.389404%);fill-opacity:1;" d="M 366.867188 342.6875 L 377.101562 336.175781 C 376.28125 352.183594 378.109375 363.25 382.574219 369.394531 L 387.582031 349.667969 C 389.722656 361.921875 392.128906 369.828125 394.8125 373.382812 L 398.058594 355.410156 C 399.117188 365.140625 401.273438 371.886719 404.535156 375.632812 L 407.785156 346.917969 L 420.492188 381.617188 C 422.15625 369.5625 422.398438 358.921875 421.246094 349.667969 L 430.976562 369.144531 C 433.902344 361.878906 435.3125 351.722656 435.207031 338.683594 L 447.183594 378.640625 L 450.6875 358.914062 C 462.113281 389.5 472.671875 406.394531 482.351562 409.578125 C 472.371094 394.730469 461.0625 373.757812 448.429688 346.664062 L 446.933594 360.15625 C 445.503906 352.089844 441.265625 342.519531 434.226562 331.441406 L 429.722656 352.425781 C 428.191406 352.800781 424.28125 346.472656 418.003906 333.449219 L 418.496094 360.15625 L 403.53125 338.433594 L 403.53125 359.40625 C 402.195312 358.378906 400.203125 354.714844 397.5625 348.421875 L 393.308594 359.65625 L 387.582031 340.179688 C 384.046875 347.335938 382.464844 351.738281 382.824219 353.402344 C 379.890625 354.421875 378.820312 347.109375 379.597656 331.441406 C 373.070312 332.003906 368.824219 335.75 366.867188 342.6875 "/>
<path style=" stroke:none;fill-rule:evenodd;fill:rgb(98.429871%,100%,80.389404%);fill-opacity:1;" d="M 416.273438 288.46875 C 423.285156 300.941406 429.554688 310.242188 435.097656 316.378906 L 422.449219 311.847656 C 416.4375 301.25 414.382812 293.457031 416.273438 288.46875 "/>
<path style=" stroke:none;fill-rule:evenodd;fill:rgb(98.429871%,100%,80.389404%);fill-opacity:1;" d="M 463.636719 382.117188 L 472.722656 420.929688 L 453.855469 406.21875 L 461.878906 430.367188 L 446.53125 415.003906 L 460.175781 454.46875 L 445.128906 439.414062 C 467.046875 488.433594 459.523438 484.894531 464.914062 536.851562 C 467.222656 509.648438 466.820312 477.113281 462.582031 462.160156 C 468.59375 462.878906 472.789062 467.082031 475.171875 474.757812 C 472.863281 460.6875 467.515625 449.269531 459.121094 440.507812 L 473.765625 449.554688 L 470.265625 429.664062 L 481.097656 442.925781 L 475.171875 413.25 L 484.609375 420.21875 L 463.636719 382.117188 "/>
<path style=" stroke:none;fill-rule:evenodd;fill:rgb(98.429871%,100%,80.389404%);fill-opacity:1;" d="M 487.058594 593.984375 L 477.070312 563.984375 L 472.4375 595.25 L 463.292969 576.089844 L 459.605469 612.726562 L 455.820312 601.460938 L 449.617188 643.882812 L 443.722656 618.511719 L 437.101562 634.730469 L 433.84375 614.835938 L 425.953125 637.253906 L 423.007812 603.566406 L 416.378906 631.886719 L 413.855469 614.40625 L 405.972656 632.304688 L 404.292969 616.40625 L 401.761719 640.207031 L 411.332031 630.625 L 415.960938 641.777344 L 420.484375 631.042969 L 425.109375 644.300781 L 431.320312 634.304688 L 435.839844 649.359375 L 443.722656 635.566406 L 450.035156 655.570312 L 458.34375 618.9375 L 464.128906 635.992188 L 465.816406 612.726562 L 467.914062 623.570312 L 472.019531 604.828125 L 476.226562 622.726562 L 479.902344 589.773438 L 486.640625 604.410156 L 487.058594 593.984375 "/>
<path style=" stroke:none;fill-rule:evenodd;fill:rgb(98.429871%,100%,80.389404%);fill-opacity:1;" d="M 474.695312 679.667969 L 473.433594 702.207031 L 468.808594 688.414062 L 463.027344 707.992188 L 458.078125 690.9375 L 448.503906 712.097656 L 447.25 692.199219 L 440.203125 704.621094 L 443.457031 684.308594 L 451.347656 690.9375 L 452.609375 679.667969 L 461.335938 688.414062 L 464.289062 674.304688 L 468.382812 683.046875 L 472.597656 667.675781 L 471.753906 686.726562 L 474.695312 679.667969 "/>
<g clip-path="url(#clip4)" clip-rule="nonzero">
<path style=" stroke:none;fill-rule:evenodd;fill:rgb(98.429871%,100%,80.389404%);fill-opacity:1;" d="M 590.632812 887.609375 C 434.921875 956.164062 242.203125 948.941406 101.785156 880.386719 L 90.78125 812 L 113.195312 854.171875 L 116.21875 802.261719 L 139.390625 854.679688 L 136.683594 820.734375 L 149.132812 839.214844 L 142.410156 785.785156 L 174.308594 845.9375 L 177.320312 821.738281 L 204.511719 856.6875 L 198.792969 800.246094 L 214.25 846.949219 L 219.96875 822.742188 L 245.15625 861.402344 L 245.15625 822.742188 L 263.863281 860.640625 L 263.109375 810.484375 L 279.804688 862.90625 L 285.855469 822.246094 L 300.285156 859.464844 L 297.527344 799.242188 L 318 847.953125 L 314.988281 817.726562 L 328.730469 842.929688 L 328.730469 827.464844 L 340.167969 851.664062 L 340.167969 807.277344 L 355.925781 845.9375 L 355.925781 808.980469 L 376.589844 856.4375 L 386.828125 808.980469 L 403.28125 854.679688 L 394.554688 818.726562 L 414.023438 843.929688 L 414.023438 828.464844 L 425.757812 840.21875 L 425.757812 821.738281 L 439.203125 847.953125 L 446.933594 829.46875 L 466.394531 845.9375 L 471.109375 832.488281 L 484.859375 852.675781 L 484.859375 837.203125 L 503.316406 862.414062 L 503.316406 840.21875 L 516.257812 871.644531 L 518.773438 841.222656 L 529.515625 873.15625 L 533.21875 851.964844 L 541.6875 878.875 L 544.964844 846.949219 L 556.886719 874.667969 L 562.929688 844.675781 L 570.902344 879.625 L 590.632812 887.609375 "/>
</g>
<path style=" stroke:none;fill-rule:evenodd;fill:rgb(98.429871%,100%,80.389404%);fill-opacity:1;" d="M 286.074219 645.320312 C 292.292969 674.277344 301.941406 690.402344 314.996094 693.671875 L 314.328125 682.9375 L 325.722656 694.339844 L 325.054688 684.9375 L 343.175781 703.085938 L 316.996094 668.199219 L 316.996094 678.941406 L 308.929688 666.796875 L 308.929688 676.199219 C 302.910156 676.785156 295.285156 666.488281 286.074219 645.320312 "/>
<path style=" stroke:none;fill-rule:evenodd;fill:rgb(98.429871%,100%,80.389404%);fill-opacity:1;" d="M 175.328125 528.40625 C 153.402344 568.15625 146.914062 608.011719 155.867188 647.988281 C 156.160156 640.605469 154.78125 626.042969 161.195312 620.445312 L 167.921875 641.984375 C 165.957031 606.851562 168.433594 568.992188 175.328125 528.40625 "/>
<path style=" stroke:none;fill-rule:evenodd;fill:rgb(98.429871%,100%,80.389404%);fill-opacity:1;" d="M 389.488281 507.523438 C 309.554688 486.886719 257.183594 484.417969 232.367188 500.117188 C 275.132812 498.1875 300.425781 500.878906 308.269531 508.195312 L 286.808594 518.257812 L 323.054688 509.523438 L 308.929688 523.667969 L 335.789062 514.261719 L 325.054688 524.996094 L 350.582031 513.59375 L 342.515625 525.664062 L 363.308594 514.929688 L 357.972656 523.667969 L 389.488281 507.523438 "/>
<path style=" stroke:none;fill-rule:evenodd;fill:rgb(98.429871%,100%,80.389404%);fill-opacity:1;" d="M 382.59375 857.316406 L 409.109375 752.464844 L 399.796875 807.175781 L 408.523438 791.585938 L 404.292969 809.714844 L 410.410156 799.667969 L 395.230469 861.8125 L 382.59375 857.316406 "/>
<path style=" stroke:none;fill-rule:evenodd;fill:rgb(98.429871%,100%,80.389404%);fill-opacity:1;" d="M 370.695312 392.933594 C 359.90625 399.554688 353.199219 400.214844 350.582031 394.933594 C 355.082031 396.171875 361.785156 395.507812 370.695312 392.933594 "/>
<path style=" stroke:none;fill-rule:evenodd;fill:rgb(98.429871%,100%,80.389404%);fill-opacity:1;" d="M 412.351562 415.730469 C 410.070312 442.738281 404.910156 471.203125 396.886719 501.105469 C 401.214844 494.59375 404.675781 484.628906 407.269531 471.246094 L 408.273438 489.710938 L 411.691406 466.921875 L 415.34375 479.3125 L 414.339844 449.785156 L 419.089844 457.417969 L 412.351562 415.730469 "/>
<path style=" stroke:none;fill-rule:evenodd;fill:rgb(98.429871%,100%,80.389404%);fill-opacity:1;" d="M 433.933594 318.453125 C 409.109375 309.316406 393.242188 311.730469 386.355469 325.699219 L 397.914062 319.554688 L 396.5 324.28125 L 402.554688 319.714844 L 400.824219 323.652344 L 405.230469 320.191406 L 404.601562 323.183594 L 409.550781 319.554688 L 408.925781 322.082031 C 411.488281 317.332031 419.832031 316.121094 433.933594 318.453125 "/>
<g clip-path="url(#clip5)" clip-rule="nonzero">
<path style=" stroke:none;fill-rule:evenodd;fill:rgb(27.839661%,27.839661%,27.839661%);fill-opacity:1;" d="M 765.644531 672.847656 C 710.09375 560.949219 655.417969 476.203125 601.617188 418.605469 L 543.09375 454.417969 C 523.679688 420.738281 473.347656 374.425781 392.105469 315.484375 L 300.394531 400.265625 L 259.339844 367.046875 L 193.921875 437.808594 L 164.179688 423.171875 C 80.34375 517.925781 69.574219 580.761719 37.652344 683.441406 C 211.609375 598.175781 459.523438 591.109375 765.644531 672.847656 "/>
</g>
<path style=" stroke:none;fill-rule:evenodd;fill:rgb(98.429871%,100%,80.389404%);fill-opacity:1;" d="M 259.339844 376.652344 L 341.949219 441.359375 L 283.800781 413.324219 L 286.390625 425.613281 L 269.898438 405.449219 L 266.347656 416.875 L 260.300781 403.726562 L 246.292969 413.324219 L 245.429688 401.136719 L 226.246094 417.738281 L 259.339844 376.652344 "/>
<path style=" stroke:none;fill-rule:evenodd;fill:rgb(98.429871%,100%,80.389404%);fill-opacity:1;" d="M 464.53125 387.207031 L 538.679688 464.023438 L 506.453125 440.398438 L 513.359375 457.878906 L 496.855469 441.359375 L 502.03125 457.878906 L 464.53125 387.207031 "/>
<path style=" stroke:none;fill-rule:evenodd;fill:rgb(98.429871%,100%,80.389404%);fill-opacity:1;" d="M 599.785156 429.074219 L 467.984375 511.261719 L 525.636719 498.972656 L 523.90625 487.636719 L 544.820312 493.789062 L 542.230469 478.042969 L 553.550781 478.042969 L 584.152344 447.40625 L 581.460938 471.898438 L 591.917969 454.417969 L 614.65625 477.171875 L 612.925781 457.007812 L 634.703125 478.042969 C 623.039062 454.835938 614.855469 435.566406 599.785156 429.074219 "/>
<path style=" stroke:none;fill-rule:evenodd;fill:rgb(98.429871%,100%,80.389404%);fill-opacity:1;" d="M 186.664062 441.359375 L 166.125 430.058594 L 142.410156 462.542969 L 162.332031 440.03125 L 162.332031 455.65625 L 168.59375 441.359375 L 171.675781 451.332031 L 176.089844 440.03125 L 186.664062 441.359375 "/>
<path style=" stroke:none;fill-rule:evenodd;fill:rgb(98.429871%,100%,80.389404%);fill-opacity:1;" d="M 306.832031 402.714844 L 313.769531 406.425781 L 332.300781 378.296875 L 306.832031 402.714844 "/>
<g clip-path="url(#clip6)" clip-rule="nonzero">
<path style=" stroke:none;fill-rule:evenodd;fill:rgb(27.839661%,27.839661%,27.839661%);fill-opacity:1;" d="M 753.464844 696.621094 C 462.5 606.28125 223.890625 611.230469 37.652344 711.46875 L 118.660156 718.984375 L 81.296875 734.015625 L 142.410156 730.34375 L 101.199219 757.78125 L 152.359375 747.816406 L 121.285156 777.699219 C 307.757812 706.652344 491.488281 705.425781 672.453125 774.03125 L 590.046875 727.71875 L 672.453125 745.199219 L 630.027344 720.203125 L 704.746094 732.792969 L 648.710938 701.503906 L 753.464844 696.621094 "/>
</g>
<path style=" stroke:none;fill-rule:evenodd;fill:rgb(98.429871%,100%,80.389404%);fill-opacity:1;" d="M 713.808594 652.71875 L 707.285156 637.90625 L 712.160156 637.90625 L 702.09375 622.652344 L 706.84375 623.527344 L 691.605469 595.542969 L 676.355469 614.351562 L 682.867188 614.351562 L 673.699219 623.085938 L 678.445312 624.730469 L 671.484375 635.683594 L 658.449219 618.65625 L 662.757812 619.539062 L 647.066406 593.335938 L 635.238281 612.132812 L 638.339844 612.132812 L 628.28125 623.085938 L 637.453125 621.757812 L 621.761719 632.273438 L 609.492188 611.25 L 602.09375 599.402344 L 608.738281 601.617188 L 590.839844 581.046875 L 579.890625 597.320312 L 584.1875 601.617188 L 578.5625 607.253906 L 583.308594 609.476562 L 578.117188 619.097656 L 559.335938 590.667969 L 553.257812 611.691406 L 544.53125 599.847656 L 537.132812 615.234375 L 525.746094 598.515625 L 514.351562 618.210938 C 558.304688 621.664062 624.796875 633.167969 713.808594 652.71875 "/>
<g clip-path="url(#clip7)" clip-rule="nonzero">
<path style=" stroke:none;fill-rule:evenodd;fill:rgb(27.839661%,27.839661%,27.839661%);fill-opacity:1;" d="M 414.347656 325.140625 C 408.289062 322.558594 401.273438 322.851562 393.332031 326.027344 L 366.699219 303.214844 C 363.113281 315.894531 367.503906 328.285156 379.875 340.386719 C 371.78125 348.269531 365.816406 352.242188 361.96875 365.707031 C 334.894531 369.722656 331.832031 380.679688 338.898438 390.144531 C 329.519531 400.660156 331.542969 408.117188 344.957031 412.511719 C 343.730469 420.128906 353.242188 425.554688 375.871094 418.128906 C 379.558594 425.585938 387.691406 427.367188 400.289062 423.480469 C 398.699219 470.851562 394.578125 498.640625 387.925781 506.839844 C 190.960938 457.695312 87.757812 535.863281 154.40625 722 L 159.863281 776.0625 L 165.324219 762.953125 L 164.78125 791.902344 L 171.859375 784.253906 L 158.777344 842.132812 L 165.875 832.847656 L 151.679688 890.191406 L 210.605469 890.191406 C 225.660156 863.050781 223.21875 832.511719 234.613281 812.105469 L 236.253906 823.023438 C 244.988281 803.488281 250.988281 779.648438 254.25 751.484375 L 259.699219 757.496094 L 261.890625 752.027344 L 274.980469 760.773438 L 272.257812 747.671875 L 290.804688 761.316406 L 288.625 753.125 L 306.085938 766.230469 L 304.449219 754.210938 L 323.550781 767.871094 L 327.363281 759.132812 C 341.414062 762.152344 348.328125 783.082031 348.101562 821.929688 L 336.089844 886.90625 L 412.285156 886.90625 L 433.5 796.183594 L 437.1875 809.617188 L 450.964844 765.929688 L 457.675781 775.675781 C 515.78125 618.636719 518.480469 431.070312 445.914062 331.082031 L 416.078125 290.296875 C 406.191406 293.699219 405.621094 305.3125 414.347656 325.140625 "/>
</g>
<path style=" stroke:none;fill-rule:evenodd;fill:rgb(98.429871%,100%,80.389404%);fill-opacity:1;" d="M 206.785156 884.191406 C 216.84375 841.707031 219.207031 809.675781 213.875 788.074219 L 218.789062 800.085938 L 218.789062 766.230469 L 232.425781 791.894531 C 249.175781 757.136719 246.082031 714.71875 223.152344 664.65625 L 243.882812 693.605469 L 225.878906 639.542969 C 234.789062 658.929688 241.703125 670.574219 246.617188 674.488281 L 229.15625 629.164062 C 248.492188 670.222656 261.589844 695.527344 268.4375 705.066406 L 254.25 663.570312 L 289.167969 716.542969 L 277.164062 684.316406 L 318.625 752.027344 L 314.261719 734.558594 L 326.808594 751.484375 L 329.542969 729.640625 C 354.8125 760.789062 360.089844 812.308594 345.367188 884.191406 L 406.464844 882 C 414.558594 855.324219 420.140625 812.816406 433.835938 773.003906 C 479.484375 719.902344 540.324219 449.660156 416.832031 298.238281 C 410.78125 299.644531 411.875 310.203125 420.109375 329.914062 C 408.964844 327.289062 400.238281 327.289062 393.917969 329.914062 C 388.101562 327.875 380.835938 322.566406 372.125 314.015625 C 372.5625 326.863281 377.566406 334.785156 387.132812 337.769531 C 375.402344 347.09375 367.988281 357.941406 365.230469 367.738281 C 341.992188 372.378906 334.550781 378.539062 342.566406 388.804688 C 350.023438 387.507812 355.398438 385.914062 358.675781 384.03125 C 363.726562 384.25 364.601562 391.757812 359.90625 392.273438 L 342.691406 392.515625 C 334.925781 400.300781 334.601562 405.640625 345.015625 408.894531 C 342.886719 405.191406 342.886719 401.871094 345.015625 398.929688 C 346.003906 410.371094 356.71875 412.421875 377.175781 405.054688 C 382.449219 420.496094 391.585938 423.714844 404.59375 414.710938 C 412.042969 438.785156 408.304688 473.863281 393.375 519.945312 C 204.753906 467.125 123.636719 524.644531 150.042969 692.511719 L 163.132812 693.605469 L 160.953125 720.90625 L 170.773438 704.523438 L 167.503906 746.027344 L 176.230469 739.472656 C 177.359375 795.554688 172.628906 842.152344 162.046875 879.265625 L 206.785156 884.191406 "/>
<path style=" stroke:none;fill-rule:evenodd;fill:rgb(27.839661%,27.839661%,27.839661%);fill-opacity:1;" d="M 366.867188 360.808594 L 377.101562 354.304688 C 376.28125 370.304688 378.109375 381.382812 382.574219 387.527344 L 387.582031 367.796875 C 389.722656 380.054688 392.128906 387.953125 394.8125 391.503906 L 398.058594 373.53125 C 399.117188 383.261719 401.273438 390.007812 404.535156 393.761719 L 407.785156 365.039062 L 420.492188 399.746094 C 422.15625 387.695312 422.398438 377.042969 421.246094 367.796875 L 430.976562 387.277344 C 433.902344 380.003906 435.3125 369.855469 435.207031 356.804688 L 447.183594 396.761719 L 450.6875 377.035156 C 462.113281 407.628906 472.671875 424.515625 482.351562 427.703125 C 472.371094 412.855469 461.0625 391.890625 448.429688 364.796875 L 446.933594 378.289062 C 445.503906 370.214844 441.265625 360.644531 434.226562 349.566406 L 429.722656 370.546875 C 428.191406 370.925781 424.28125 364.597656 418.003906 351.574219 L 418.496094 378.289062 L 403.53125 356.554688 L 403.53125 377.535156 C 402.195312 376.507812 400.203125 372.839844 397.5625 366.542969 L 393.308594 377.789062 L 387.582031 358.308594 C 384.046875 365.457031 382.464844 369.871094 382.824219 371.527344 C 379.890625 372.546875 378.820312 365.230469 379.597656 349.566406 C 373.070312 350.125 368.824219 353.871094 366.867188 360.808594 "/>
<path style=" stroke:none;fill-rule:evenodd;fill:rgb(27.839661%,27.839661%,27.839661%);fill-opacity:1;" d="M 416.273438 306.589844 C 423.285156 319.0625 429.554688 328.367188 435.097656 334.503906 L 422.449219 329.972656 C 416.4375 319.378906 414.382812 311.589844 416.273438 306.589844 "/>
<path style=" stroke:none;fill-rule:evenodd;fill:rgb(27.839661%,27.839661%,27.839661%);fill-opacity:1;" d="M 463.636719 400.242188 L 472.722656 439.054688 L 453.855469 424.339844 L 461.878906 448.492188 L 446.53125 433.125 L 460.175781 472.589844 L 445.128906 457.535156 C 467.046875 506.5625 459.523438 503.027344 464.914062 554.972656 C 467.222656 527.773438 466.820312 495.246094 462.582031 480.28125 C 468.59375 481.007812 472.789062 485.207031 475.171875 492.878906 C 472.863281 478.8125 467.515625 467.390625 459.121094 458.640625 L 473.765625 467.675781 L 470.265625 447.789062 L 481.097656 461.046875 L 475.171875 431.371094 L 484.609375 438.351562 L 463.636719 400.242188 "/>
<path style=" stroke:none;fill-rule:evenodd;fill:rgb(27.839661%,27.839661%,27.839661%);fill-opacity:1;" d="M 487.058594 612.109375 L 477.070312 582.109375 L 472.4375 613.371094 L 463.292969 594.210938 L 459.605469 630.851562 L 455.820312 619.582031 L 449.617188 662.007812 L 443.722656 636.636719 L 437.101562 652.851562 L 433.84375 632.957031 L 425.953125 655.378906 L 423.007812 621.6875 L 416.378906 650.011719 L 413.855469 632.539062 L 405.972656 650.429688 L 404.292969 634.527344 L 401.761719 658.328125 L 411.332031 648.75 L 415.960938 659.898438 L 420.484375 649.167969 L 425.109375 662.425781 L 431.320312 652.425781 L 435.839844 667.488281 L 443.722656 653.695312 L 450.035156 673.691406 L 458.34375 637.0625 L 464.128906 654.113281 L 465.816406 630.851562 L 467.914062 641.691406 L 472.019531 622.953125 L 476.226562 640.847656 L 479.902344 607.894531 L 486.640625 622.535156 L 487.058594 612.109375 "/>
<path style=" stroke:none;fill-rule:evenodd;fill:rgb(27.839661%,27.839661%,27.839661%);fill-opacity:1;" d="M 474.695312 697.800781 L 473.433594 720.328125 L 468.808594 706.535156 L 463.027344 726.121094 L 458.078125 709.0625 L 448.503906 730.226562 L 447.25 710.332031 L 440.203125 722.746094 L 443.457031 702.433594 L 451.347656 709.0625 L 452.609375 697.800781 L 461.335938 706.535156 L 464.289062 692.433594 L 468.382812 701.171875 L 472.597656 685.796875 L 471.753906 704.847656 L 474.695312 697.800781 "/>
<g clip-path="url(#clip8)" clip-rule="nonzero">
<path style=" stroke:none;fill-rule:evenodd;fill:rgb(27.839661%,27.839661%,27.839661%);fill-opacity:1;" d="M 590.632812 905.730469 C 434.921875 974.296875 242.203125 967.066406 101.785156 898.511719 L 90.78125 830.121094 L 113.195312 872.292969 L 116.21875 820.382812 L 139.390625 872.804688 L 136.683594 838.855469 L 149.132812 857.339844 L 142.410156 803.914062 L 174.308594 864.070312 L 177.320312 839.859375 L 204.511719 874.8125 L 198.792969 818.367188 L 214.25 865.074219 L 219.96875 840.871094 L 245.15625 879.535156 L 245.15625 840.871094 L 263.863281 878.765625 L 263.109375 828.609375 L 279.804688 881.03125 L 285.855469 840.371094 L 300.285156 877.59375 L 297.527344 817.367188 L 318 866.074219 L 314.988281 835.847656 L 328.730469 861.058594 L 328.730469 845.585938 L 340.167969 869.796875 L 340.167969 825.40625 L 355.925781 864.070312 L 355.925781 827.113281 L 376.589844 874.570312 L 386.828125 827.113281 L 403.28125 872.804688 L 394.554688 836.851562 L 414.023438 862.0625 L 414.023438 846.597656 L 425.757812 858.34375 L 425.757812 839.859375 L 439.203125 866.074219 L 446.933594 847.59375 L 466.394531 864.070312 L 471.109375 850.609375 L 484.859375 870.796875 L 484.859375 855.324219 L 503.316406 880.539062 L 503.316406 858.34375 L 516.257812 889.773438 L 518.773438 859.347656 L 529.515625 891.289062 L 533.21875 870.097656 L 541.6875 896.996094 L 544.964844 865.074219 L 556.886719 892.792969 L 562.929688 862.808594 L 570.902344 897.757812 L 590.632812 905.730469 "/>
</g>
<path style=" stroke:none;fill-rule:evenodd;fill:rgb(27.839661%,27.839661%,27.839661%);fill-opacity:1;" d="M 286.074219 663.453125 C 292.292969 692.410156 301.941406 708.527344 314.996094 711.804688 L 314.328125 701.0625 L 325.722656 712.472656 L 325.054688 703.058594 L 343.175781 721.207031 L 316.996094 686.324219 L 316.996094 697.066406 L 308.929688 684.917969 L 308.929688 694.324219 C 302.910156 694.910156 295.285156 684.617188 286.074219 663.453125 "/>
<path style=" stroke:none;fill-rule:evenodd;fill:rgb(27.839661%,27.839661%,27.839661%);fill-opacity:1;" d="M 175.328125 546.53125 C 153.402344 586.277344 146.914062 626.144531 155.867188 666.109375 C 156.160156 658.730469 154.78125 644.175781 161.195312 638.566406 L 167.921875 660.109375 C 165.957031 624.972656 168.433594 587.113281 175.328125 546.53125 "/>
<path style=" stroke:none;fill-rule:evenodd;fill:rgb(27.839661%,27.839661%,27.839661%);fill-opacity:1;" d="M 389.488281 525.648438 C 309.554688 505.015625 257.183594 502.542969 232.367188 518.25 C 275.132812 516.320312 300.425781 519.011719 308.269531 526.316406 L 286.808594 536.390625 L 323.054688 527.644531 L 308.929688 541.789062 L 335.789062 532.386719 L 325.054688 543.121094 L 350.582031 531.71875 L 342.515625 543.789062 L 363.308594 533.054688 L 357.972656 541.789062 L 389.488281 525.648438 "/>
<path style=" stroke:none;fill-rule:evenodd;fill:rgb(27.839661%,27.839661%,27.839661%);fill-opacity:1;" d="M 382.59375 875.4375 L 409.109375 770.59375 L 399.796875 825.296875 L 408.523438 809.714844 L 404.292969 827.839844 L 410.410156 817.800781 L 395.230469 879.933594 L 382.59375 875.4375 "/>
<path style=" stroke:none;fill-rule:evenodd;fill:rgb(98.429871%,100%,80.389404%);fill-opacity:1;" d="M 370.695312 411.066406 C 359.90625 417.679688 353.199219 418.339844 350.582031 413.054688 C 355.082031 414.292969 361.785156 413.632812 370.695312 411.066406 "/>
<path style=" stroke:none;fill-rule:evenodd;fill:rgb(27.839661%,27.839661%,27.839661%);fill-opacity:1;" d="M 412.351562 433.855469 C 410.070312 460.863281 404.910156 489.328125 396.886719 519.238281 C 401.214844 512.714844 404.675781 502.761719 407.269531 489.367188 L 408.273438 507.835938 L 411.691406 485.054688 L 415.34375 497.445312 L 414.339844 467.910156 L 419.089844 475.550781 L 412.351562 433.855469 "/>
<path style=" stroke:none;fill-rule:evenodd;fill:rgb(27.839661%,27.839661%,27.839661%);fill-opacity:1;" d="M 433.933594 336.574219 C 409.109375 327.4375 393.242188 329.855469 386.355469 343.824219 L 397.914062 337.679688 L 396.5 342.410156 L 402.554688 337.839844 L 400.824219 341.777344 L 405.230469 338.316406 L 404.601562 341.308594 L 409.550781 337.679688 L 408.925781 340.203125 C 411.488281 335.457031 419.832031 334.242188 433.933594 336.574219 "/>
</g>
</svg>